<svg xmlns="http://www.w3.org/2000/svg" viewBox="0 0 640 400" role="img" aria-label="Heirs Game Agent">
  <defs>
    <linearGradient id="bg" x1="0" y1="0" x2="1" y2="1">
      <stop offset="0%" stop-color="#18181b"/>
      <stop offset="100%" stop-color="#0c0c0e"/>
    </linearGradient>
  </defs>
  <rect width="640" height="400" fill="url(#bg)"/>
  <rect x="32" y="32" width="576" height="336" rx="16" fill="none" stroke="#f97316" stroke-width="3" opacity="0.45"/>
  <g fill="none" stroke="#2dd4bf" stroke-width="2" opacity="0.35">
    <path d="M120 300 V140 M120 140 L220 90 M220 90 L320 140 M320 140 V300"/>
    <path d="M360 300 V160 M360 160 L440 110 M440 110 L520 160 M520 160 V300"/>
  </g>
  <circle cx="120" cy="300" r="10" fill="#f97316"/>
  <circle cx="220" cy="90" r="10" fill="#f4f4f5"/>
  <circle cx="320" cy="140" r="10" fill="#f97316"/>
  <circle cx="360" cy="300" r="10" fill="#f4f4f5"/>
  <circle cx="520" cy="160" r="10" fill="#f97316"/>
  <text x="320" y="210" text-anchor="middle" fill="#f4f4f5" font-family="system-ui, sans-serif" font-size="42" font-weight="700">Heirs Agent</text>
  <text x="320" y="252" text-anchor="middle" fill="#a1a1aa" font-family="system-ui, sans-serif" font-size="18" letter-spacing="0.12em">MINIMAX · ALPHA-BETA · C++</text>
  <text x="320" y="330" text-anchor="middle" fill="#f97316" font-family="system-ui, sans-serif" font-size="20" font-weight="600">4th / 201 · Class Competition</text>
</svg>
